<?xml version="1.0" encoding="utf-8"?>
<!-- Generator: Adobe Illustrator 16.0.0, SVG Export Plug-In . SVG Version: 6.00 Build 0)  -->
<!DOCTYPE svg PUBLIC "-//W3C//DTD SVG 1.1//EN" "http://www.w3.org/Graphics/SVG/1.1/DTD/svg11.dtd">
<svg version="1.1" xmlns="http://www.w3.org/2000/svg" xmlns:xlink="http://www.w3.org/1999/xlink" x="0px" y="0px"
	 width="295.076px" height="77.351px" viewBox="0 0 295.076 77.351" enable-background="new 0 0 295.076 77.351"
	 xml:space="preserve">
<g id="레이어_1">
</g>
<g id="Layer_1">
	<path  d="M105.413,15.237c1.853,0,3.249,0.527,4.191,1.583c0.528,0.602,0.962,1.48,1.296,2.643h5.255
		c-0.081-1.506-0.657-3.005-1.73-4.496c-1.949-2.656-5.026-3.992-9.236-3.992c-3.148,0-5.741,0.993-7.778,2.975
		c-2.342,2.283-3.514,5.523-3.514,9.735c0,3.884,1.032,6.943,3.091,9.179c2.064,2.236,4.891,3.352,8.493,3.352
		c2.912,0,5.294-0.824,7.164-2.476c1.86-1.653,3.016-3.792,3.469-6.416h-5.251c-0.348,1.228-0.785,2.163-1.313,2.794
		c-0.948,1.141-2.33,1.715-4.144,1.715c-1.765,0-3.219-0.676-4.369-2.022c-1.147-1.353-1.72-3.372-1.72-6.07
		c0-2.705,0.544-4.802,1.631-6.278C102.038,15.979,103.528,15.237,105.413,15.237z"/>
	<polygon  points="133.566,20.574 123.722,20.574 123.722,11.388 118.465,11.388 118.465,35.511 123.722,35.511 123.722,24.711 
		133.566,24.711 133.566,35.511 138.824,35.511 138.824,11.388 133.566,11.388 	"/>
	<path  d="M162.256,13.506c-1.916-1.878-4.685-2.816-8.303-2.816c-3.623,0-6.392,0.938-8.301,2.816
		c-2.57,2.213-3.852,5.527-3.852,9.937c0,4.332,1.282,7.651,3.852,9.951c1.909,1.882,4.678,2.821,8.301,2.821
		c3.618,0,6.387-0.939,8.303-2.821c2.555-2.3,3.832-5.619,3.832-9.951C166.087,19.033,164.811,15.719,162.256,13.506z
		 M158.977,29.743c-1.233,1.473-2.903,2.214-5.007,2.214c-2.102,0-3.783-0.741-5.04-2.214c-1.25-1.478-1.873-3.578-1.873-6.301
		c0-2.709,0.624-4.801,1.873-6.282c1.256-1.474,2.938-2.211,5.04-2.211c2.104,0,3.773,0.741,5.007,2.222
		c1.236,1.481,1.856,3.567,1.856,6.271C160.833,26.165,160.213,28.266,158.977,29.743z"/>
	<path  d="M187.439,23.534c-0.967-0.734-2.43-1.317-4.374-1.75l-4.446-0.995c-1.715-0.381-2.837-0.711-3.362-0.991
		c-0.824-0.426-1.234-1.055-1.234-1.907c0-0.928,0.413-1.652,1.25-2.17c0.834-0.514,1.957-0.771,3.352-0.771
		c1.257,0,2.311,0.195,3.162,0.594c1.266,0.6,1.947,1.614,2.042,3.047h5.042c-0.086-2.574-1.093-4.529-2.992-5.882
		c-1.906-1.351-4.203-2.019-6.899-2.019c-3.226,0-5.677,0.716-7.343,2.148c-1.666,1.435-2.499,3.227-2.499,5.382
		c0,2.364,0.857,4.096,2.557,5.209c1.009,0.661,2.857,1.282,5.551,1.854l2.746,0.566c1.602,0.333,2.777,0.716,3.513,1.141
		c0.738,0.432,1.106,1.052,1.106,1.844c0,1.367-0.755,2.305-2.262,2.809c-0.793,0.26-1.83,0.398-3.106,0.398
		c-2.125,0-3.63-0.502-4.506-1.508c-0.479-0.537-0.801-1.363-0.968-2.469h-5.046c0,2.501,0.955,4.473,2.864,5.911
		c1.911,1.438,4.534,2.159,7.861,2.159c3.261,0,5.788-0.729,7.573-2.182c1.786-1.457,2.68-3.289,2.68-5.504
		C189.701,26.306,188.95,24.673,187.439,23.534z"/>
	<path  d="M207.783,26.213c0,1.664-0.209,2.873-0.619,3.631c-0.642,1.354-2.037,2.026-4.176,2.026c-2.15,0-3.547-0.672-4.19-2.026
		c-0.411-0.758-0.616-1.967-0.616-3.631V11.388h-5.375v14.825c0,2.564,0.412,4.563,1.25,5.982c1.568,2.625,4.546,3.938,8.932,3.938
		c4.389,0,7.361-1.313,8.916-3.938c0.837-1.419,1.257-3.418,1.257-5.982V11.388h-5.378V26.213z"/>
	<polygon  points="233.571,28.185 223.467,11.388 217.967,11.388 217.967,35.511 222.852,35.511 222.852,18.368 233.207,35.511 
		238.451,35.511 238.451,11.388 233.571,11.388 	"/>
	<path  d="M110.852,58.477c0,1.665-0.214,2.875-0.619,3.633c-0.643,1.352-2.032,2.025-4.178,2.025c-2.151,0-3.547-0.674-4.184-2.025
		c-0.413-0.758-0.625-1.968-0.625-3.633V43.653h-5.376v14.823c0,2.565,0.422,4.563,1.255,5.984c1.565,2.623,4.544,3.937,8.931,3.937
		c4.389,0,7.36-1.313,8.917-3.937c0.84-1.422,1.255-3.419,1.255-5.984V43.653h-5.375V58.477z"/>
	<polygon  points="136.636,60.449 126.538,43.653 121.035,43.653 121.035,67.775 125.918,67.775 125.918,50.635 136.271,67.775 
		141.519,67.775 141.519,43.653 136.636,43.653 	"/>
	<rect  x="147.047" y="43.653" width="5.264" height="24.122"/>
	<polygon  points="166.079,61.979 160.567,43.653 154.908,43.653 163.491,67.775 168.436,67.775 177.075,43.653 171.624,43.653 	"/>
	<polygon  points="184.037,57.228 196.037,57.228 196.037,53.042 184.037,53.042 184.037,47.915 197.149,47.915 197.149,43.653 
		178.867,43.653 178.867,67.775 197.774,67.775 197.774,63.43 184.037,63.43 	"/>
	<path  d="M220.012,65.792c-0.09-0.389-0.138-1.14-0.138-2.245v-1.624c0-1.698-0.242-2.964-0.726-3.779
		c-0.484-0.818-1.309-1.45-2.477-1.895c1.394-0.457,2.392-1.244,2.999-2.348c0.606-1.103,0.906-2.23,0.906-3.376
		c0-0.948-0.154-1.794-0.467-2.534c-0.312-0.735-0.74-1.415-1.276-2.036c-0.646-0.732-1.438-1.288-2.37-1.675
		c-0.931-0.381-2.265-0.59-3.999-0.627h-12.118v24.122h5.175v-9.474h5.188c1.481,0,2.49,0.254,3.026,0.77
		c0.541,0.51,0.821,1.541,0.843,3.08l0.032,2.26c0.011,0.701,0.088,1.393,0.218,2.067c0.067,0.339,0.182,0.771,0.337,1.297h5.824
		v-0.604C220.478,66.886,220.155,66.424,220.012,65.792z M213.78,53.934c-0.571,0.262-1.421,0.397-2.552,0.397h-5.706v-6.492h5.854
		c1.089,0,1.904,0.142,2.454,0.429c0.967,0.494,1.454,1.473,1.454,2.943C215.285,52.568,214.781,53.475,213.78,53.934z"/>
	<path  d="M241.152,55.798c-0.968-0.734-2.43-1.315-4.38-1.75l-4.437-0.995c-1.72-0.381-2.839-0.71-3.369-0.991
		c-0.82-0.425-1.229-1.054-1.229-1.906c0-0.93,0.415-1.654,1.25-2.168c0.831-0.514,1.95-0.773,3.352-0.773
		c1.253,0,2.31,0.194,3.153,0.592c1.271,0.601,1.951,1.616,2.048,3.051h5.046c-0.088-2.575-1.09-4.532-2.99-5.884
		c-1.904-1.35-4.208-2.02-6.9-2.02c-3.227,0-5.68,0.716-7.343,2.149c-1.668,1.433-2.501,3.226-2.501,5.38
		c0,2.366,0.854,4.098,2.558,5.211c1.006,0.661,2.855,1.284,5.554,1.854l2.739,0.567c1.606,0.333,2.775,0.714,3.517,1.139
		c0.739,0.433,1.106,1.053,1.106,1.844c0,1.367-0.752,2.306-2.258,2.808c-0.797,0.262-1.837,0.4-3.112,0.4
		c-2.128,0-3.631-0.503-4.506-1.506c-0.479-0.539-0.801-1.366-0.963-2.469h-5.05c0,2.499,0.958,4.47,2.866,5.909
		c1.905,1.438,4.526,2.158,7.854,2.158c3.267,0,5.789-0.727,7.576-2.18c1.788-1.457,2.681-3.291,2.681-5.505
		C243.413,58.569,242.658,56.937,241.152,55.798z"/>
	<rect  x="246.764" y="43.653" width="5.257" height="24.122"/>
	<polygon  points="289.081,43.653 284.057,54.166 278.819,43.653 274.906,43.653 272.578,43.653 254.349,43.653 254.349,47.915 
		261.961,47.915 261.961,67.775 267.294,67.775 267.294,47.915 274.906,47.915 274.906,47.672 281.344,58.772 281.344,67.775 
		286.603,67.775 286.603,58.725 295.076,43.653 	"/>
	<g>
		<rect fill="#0054A7" width="77.351" height="77.351"/>
		<g>
			<path fill="#FFFFFF" d="M7.492,5.909c0.402,0,0.705,0.119,0.911,0.354c0.113,0.136,0.208,0.329,0.28,0.589h1.141
				C9.806,6.518,9.68,6.185,9.447,5.85c-0.423-0.596-1.09-0.893-2.004-0.893c-0.683,0-1.245,0.222-1.687,0.665
				c-0.508,0.51-0.762,1.234-0.762,2.173c0,0.87,0.223,1.554,0.669,2.054c0.447,0.5,1.062,0.748,1.842,0.748
				c0.631,0,1.15-0.184,1.554-0.553s0.655-0.847,0.753-1.436H8.675C8.599,8.885,8.504,9.093,8.39,9.233
				c-0.207,0.255-0.506,0.384-0.9,0.384c-0.383,0-0.699-0.149-0.948-0.453c-0.249-0.3-0.374-0.753-0.374-1.356
				c0-0.603,0.119-1.069,0.354-1.401C6.76,6.076,7.083,5.909,7.492,5.909z"/>
			<polygon fill="#FFFFFF" points="13.601,7.103 11.464,7.103 11.464,5.05 10.324,5.05 10.324,10.44 11.464,10.44 11.464,8.025 
				13.601,8.025 13.601,10.44 14.741,10.44 14.741,5.05 13.601,5.05 			"/>
			<path fill="#FFFFFF" d="M19.824,5.521c-0.415-0.419-1.016-0.629-1.8-0.629c-0.786,0-1.387,0.21-1.801,0.629
				c-0.559,0.495-0.836,1.236-0.836,2.22c0,0.969,0.277,1.712,0.836,2.226c0.414,0.421,1.015,0.63,1.801,0.63
				c0.785,0,1.385-0.209,1.8-0.63c0.553-0.514,0.832-1.257,0.832-2.226C20.655,6.758,20.377,6.017,19.824,5.521z M19.113,9.15
				c-0.269,0.329-0.63,0.494-1.087,0.494c-0.456,0-0.819-0.165-1.092-0.494c-0.272-0.33-0.407-0.801-0.407-1.409
				c0-0.604,0.135-1.071,0.407-1.4c0.272-0.33,0.636-0.496,1.092-0.496c0.457,0,0.819,0.166,1.087,0.497
				c0.269,0.333,0.402,0.799,0.402,1.399C19.516,8.35,19.382,8.82,19.113,9.15z"/>
			<path fill="#FFFFFF" d="M25.288,7.764c-0.21-0.166-0.527-0.296-0.949-0.392l-0.964-0.22c-0.373-0.088-0.615-0.16-0.73-0.224
				c-0.179-0.093-0.267-0.235-0.267-0.426c0-0.207,0.089-0.368,0.271-0.486c0.181-0.113,0.424-0.172,0.728-0.172
				c0.271,0,0.5,0.045,0.685,0.133c0.275,0.135,0.422,0.361,0.442,0.682H25.6c-0.02-0.573-0.239-1.013-0.649-1.314
				c-0.414-0.302-0.913-0.452-1.497-0.452c-0.701,0-1.232,0.16-1.592,0.481c-0.363,0.32-0.543,0.721-0.543,1.203
				c0,0.527,0.185,0.914,0.555,1.163c0.218,0.146,0.621,0.285,1.204,0.413l0.597,0.128c0.346,0.074,0.601,0.157,0.761,0.252
				c0.159,0.098,0.241,0.236,0.241,0.413c0,0.307-0.165,0.516-0.492,0.628c-0.173,0.06-0.396,0.09-0.674,0.09
				c-0.46,0-0.786-0.114-0.978-0.336c-0.104-0.121-0.173-0.306-0.209-0.554h-1.094c0,0.561,0.207,1,0.621,1.322
				c0.415,0.321,0.983,0.482,1.705,0.482c0.708,0,1.256-0.162,1.644-0.488c0.387-0.325,0.58-0.734,0.58-1.229
				C25.777,8.383,25.616,8.016,25.288,7.764z"/>
			<path fill="#FFFFFF" d="M29.701,8.361c0,0.371-0.045,0.643-0.135,0.813c-0.138,0.301-0.44,0.453-0.904,0.453
				c-0.466,0-0.77-0.152-0.909-0.453c-0.09-0.17-0.133-0.441-0.133-0.813V5.05h-1.168v3.312c0,0.572,0.09,1.021,0.272,1.338
				c0.34,0.586,0.987,0.88,1.938,0.88c0.953,0,1.598-0.294,1.935-0.88c0.181-0.317,0.272-0.766,0.272-1.338V5.05h-1.167V8.361z"/>
			<polygon fill="#FFFFFF" points="35.296,8.803 33.105,5.05 31.911,5.05 31.911,10.44 32.971,10.44 32.971,6.611 35.216,10.44 
				36.354,10.44 36.354,5.05 35.296,5.05 			"/>
			<path fill="#FFFFFF" d="M8.564,16.195c0,0.372-0.044,0.642-0.134,0.812C8.29,17.308,7.99,17.46,7.524,17.46
				c-0.467,0-0.769-0.152-0.908-0.453c-0.088-0.17-0.135-0.439-0.135-0.812V12.88H5.315v3.315c0,0.572,0.09,1.021,0.273,1.337
				c0.34,0.587,0.985,0.88,1.936,0.88c0.953,0,1.598-0.293,1.936-0.88c0.182-0.316,0.271-0.765,0.271-1.337V12.88H8.564V16.195z"/>
			<polygon fill="#FFFFFF" points="14.159,16.635 11.969,12.88 10.775,12.88 10.775,18.273 11.833,18.273 11.833,14.441 
				14.081,18.273 15.219,18.273 15.219,12.88 14.159,12.88 			"/>
			<rect x="16.419" y="12.88" fill="#FFFFFF" width="1.14" height="5.394"/>
			<polygon fill="#FFFFFF" points="20.546,16.978 19.351,12.88 18.124,12.88 19.986,18.273 21.058,18.273 22.932,12.88 21.75,12.88 
							"/>
			<polygon fill="#FFFFFF" points="24.442,15.915 27.047,15.915 27.047,14.979 24.442,14.979 24.442,13.833 27.288,13.833 
				27.288,12.88 23.321,12.88 23.321,18.273 27.424,18.273 27.424,17.304 24.442,17.304 			"/>
			<path fill="#FFFFFF" d="M32.249,17.83c-0.021-0.087-0.03-0.256-0.03-0.5v-0.365c0-0.379-0.054-0.661-0.158-0.845
				c-0.106-0.184-0.285-0.324-0.537-0.424c0.301-0.103,0.518-0.278,0.65-0.524c0.13-0.247,0.196-0.499,0.196-0.754
				c0-0.213-0.033-0.402-0.102-0.568c-0.067-0.163-0.16-0.315-0.276-0.454c-0.141-0.164-0.313-0.289-0.515-0.374
				c-0.202-0.086-0.493-0.133-0.867-0.142h-2.63v5.394h1.122v-2.117h1.127c0.321,0,0.539,0.057,0.656,0.17
				c0.117,0.114,0.178,0.346,0.183,0.69l0.007,0.506c0.003,0.156,0.02,0.312,0.046,0.462c0.015,0.075,0.041,0.172,0.075,0.289h1.262
				V18.14C32.35,18.074,32.279,17.971,32.249,17.83z M30.896,15.179c-0.123,0.061-0.307,0.088-0.554,0.088h-1.238v-1.451h1.271
				c0.237,0,0.414,0.031,0.532,0.096c0.21,0.111,0.315,0.33,0.315,0.66C31.222,14.874,31.114,15.076,30.896,15.179z"/>
			<path fill="#FFFFFF" d="M36.834,15.597c-0.211-0.165-0.528-0.296-0.95-0.392l-0.964-0.224c-0.372-0.084-0.614-0.159-0.729-0.221
				c-0.178-0.095-0.268-0.236-0.268-0.427c0-0.207,0.09-0.368,0.271-0.485c0.182-0.115,0.424-0.171,0.727-0.171
				c0.274,0,0.502,0.042,0.685,0.131c0.275,0.134,0.424,0.362,0.445,0.683h1.096c-0.021-0.575-0.238-1.013-0.651-1.314
				c-0.412-0.302-0.912-0.452-1.497-0.452c-0.702,0-1.231,0.158-1.593,0.479c-0.361,0.32-0.542,0.721-0.542,1.204
				c0,0.529,0.185,0.915,0.555,1.163c0.219,0.15,0.62,0.289,1.205,0.416l0.595,0.126c0.348,0.075,0.603,0.161,0.762,0.256
				c0.161,0.096,0.241,0.233,0.241,0.41c0,0.308-0.164,0.518-0.49,0.629c-0.172,0.059-0.398,0.088-0.674,0.088
				c-0.461,0-0.789-0.111-0.978-0.336c-0.104-0.12-0.175-0.304-0.209-0.552h-1.096c0,0.56,0.208,1.001,0.621,1.322
				c0.415,0.32,0.982,0.481,1.705,0.481c0.708,0,1.255-0.163,1.643-0.486c0.388-0.326,0.582-0.735,0.582-1.23
				C37.324,16.216,37.162,15.85,36.834,15.597z"/>
			<rect x="38.052" y="12.88" fill="#FFFFFF" width="1.14" height="5.394"/>
			<polygon fill="#FFFFFF" points="47.233,12.88 46.143,15.231 45.006,12.88 44.158,12.88 43.652,12.88 39.697,12.88 39.697,13.833 
				41.348,13.833 41.348,18.273 42.506,18.273 42.506,13.833 44.158,13.833 44.158,13.779 45.554,16.261 45.554,18.273 
				46.695,18.273 46.695,16.25 48.533,12.88 			"/>
			<path fill="#FFFFFF" d="M5.445,22.247v-0.746c0.354-0.016,0.601-0.037,0.744-0.067c0.226-0.049,0.409-0.147,0.551-0.292
				c0.096-0.098,0.17-0.229,0.22-0.396c0.029-0.098,0.044-0.171,0.044-0.22h0.934v5.615H6.791v-3.894H5.445z"/>
			<path fill="#FFFFFF" d="M10.961,23.39c-0.287,0-0.498-0.081-0.637-0.246c-0.139-0.166-0.208-0.412-0.208-0.739
				c0-0.394,0.108-0.672,0.325-0.834c0.137-0.105,0.302-0.157,0.494-0.157c0.263,0,0.473,0.091,0.624,0.275
				c0.152,0.184,0.228,0.433,0.228,0.747c0,0.394-0.13,0.668-0.389,0.825C11.261,23.35,11.117,23.39,10.961,23.39z M8.97,22.498
				c0,0.577,0.175,1.021,0.527,1.33c0.353,0.308,0.755,0.462,1.211,0.462c0.308,0,0.566-0.063,0.777-0.188
				c0.115-0.066,0.224-0.162,0.326-0.287c-0.021,0.423-0.072,0.746-0.154,0.964c-0.151,0.403-0.414,0.604-0.786,0.604
				c-0.195,0-0.349-0.053-0.465-0.153c-0.116-0.103-0.189-0.234-0.215-0.4H9.069c0.05,0.477,0.247,0.836,0.591,1.082
				c0.343,0.247,0.729,0.37,1.16,0.37c0.903,0,1.522-0.429,1.861-1.288c0.177-0.455,0.266-1.018,0.266-1.692
				c0-0.697-0.093-1.259-0.276-1.687c-0.324-0.749-0.921-1.127-1.791-1.127c-0.567,0-1.026,0.187-1.379,0.559
				C9.147,21.417,8.97,21.901,8.97,22.498z"/>
			<path fill="#FFFFFF" d="M14.296,24.071l1.432-2.41v2.41H14.296z M17.474,24.071h-0.648v-3.508h-1.259l-2.107,3.407v0.961h2.269
				v1.209h1.097v-1.209h0.648V24.071z"/>
			<path fill="#FFFFFF" d="M19.085,24.373c0-0.369,0.11-0.636,0.329-0.803c0.146-0.11,0.315-0.167,0.506-0.167
				c0.234,0,0.432,0.086,0.593,0.259c0.162,0.172,0.243,0.418,0.243,0.738c0,0.291-0.07,0.527-0.213,0.71
				c-0.142,0.181-0.337,0.271-0.584,0.271c-0.253,0-0.462-0.094-0.626-0.282C19.168,24.911,19.085,24.669,19.085,24.373z
				 M21.779,21.952c-0.04-0.442-0.218-0.797-0.533-1.064c-0.316-0.267-0.738-0.401-1.269-0.401c-0.368,0-0.684,0.083-0.949,0.248
				c-0.264,0.164-0.477,0.38-0.639,0.649c-0.19,0.314-0.317,0.711-0.383,1.186c-0.037,0.268-0.055,0.614-0.055,1.043
				c0,0.729,0.133,1.322,0.398,1.781c0.342,0.591,0.874,0.887,1.594,0.887c0.671,0,1.164-0.198,1.483-0.597
				c0.318-0.398,0.478-0.859,0.478-1.381c0-0.523-0.162-0.953-0.486-1.292c-0.323-0.337-0.738-0.507-1.244-0.507
				c-0.236,0-0.445,0.038-0.63,0.115c-0.183,0.076-0.344,0.196-0.483,0.362c0.032-0.435,0.088-0.763,0.173-0.986
				c0.153-0.406,0.411-0.609,0.773-0.609c0.243,0,0.424,0.09,0.543,0.268c0.071,0.107,0.106,0.208,0.106,0.299H21.779z"/>
		</g>
		<g>
			<path fill="#FFFFFF" d="M70.366,29.722l-0.012,8.129H65.13v-8.839h-8.037l5.514,8.909h-5.921l-3.932-6.342l-3.761,6.342h-5.935
				l5.424-8.909h-8.298v8.839h-5.116l-0.003-8.97c0.191-2.567,3.082-2.904,3.082-2.904h12.366l2.322-3.887l0,0l0,0l0,0l0,0
				l2.326,3.887h11.909C67.069,25.977,70.456,26.491,70.366,29.722z"/>
			<path fill="#FFFFFF" d="M35.106,42.693v11.151h9.204v-2.987h-4.126v-2.576h4.126v-3.002h-4.126v-2.348h4.126V39.97h-6.702
				C37.608,39.97,35.174,39.821,35.106,42.693z"/>
			<path fill="#FFFFFF" d="M70.369,42.433v11.412l-9.207-0.011v-2.977h4.129v-2.576h-4.129v-3.002h4.129v-2.348h-4.129V39.97h6.594
				C67.756,39.97,70.069,40.349,70.369,42.433z"/>
			<path fill="#FFFFFF" d="M70.366,57.996l-0.012,12.906h-5.122V59.031H40.184v11.871h-5.116l-0.004-12.69
				c0.024-2.081,2.574-2.383,2.574-2.383H50.16v-3.183h5.495v3.183h12.314C67.969,55.829,70.328,56.357,70.366,57.996z"/>
			<polygon fill="#FFFFFF" points="57.869,62.2 55.356,62.2 55.356,64.604 57.869,64.604 57.869,66.868 62.151,66.868 
				62.151,60.335 57.869,60.335 			"/>
			<path fill="#FFFFFF" d="M46.082,70.998h16.11v-2.603H48.145v-1.677h-4.268v2.384C43.877,69.103,43.845,71.054,46.082,70.998z"/>
			<path fill="#FFFFFF" d="M59.263,52.434v-4.413c-4.354-0.992-4.228-5.106-4.228-5.106h4.206v-2.973H46.384v2.973h3.938
				c0,0,0.622,3.386-4.037,5.106v4.413c0,0,4.936-1.35,6.596-4.573C52.881,47.86,54.91,51.571,59.263,52.434z"/>
			<path fill="#FFFFFF" d="M50.341,60.419l-4.152-0.062c0,0-0.289,3.286-3.943,3.317v2.904c0,0,4.245,0.032,6.022-2.422
				c0,0,1.678,2.454,6.022,2.475v-2.849C54.291,63.783,51.033,63.421,50.341,60.419z"/>
		</g>
	</g>
</g>
</svg>
